<svg xmlns="http://www.w3.org/2000/svg" xmlns:xlink="http://www.w3.org/1999/xlink" width="500" zoomAndPan="magnify" viewBox="0 0 375 374.999991" height="500" preserveAspectRatio="xMidYMid meet" version="1.0"><defs><g/><clipPath id="5cfc3f97b2"><path d="M 20.644531 144.015625 L 267.394531 144.015625 L 267.394531 231.015625 L 20.644531 231.015625 Z M 20.644531 144.015625 " clip-rule="nonzero"/></clipPath><clipPath id="bd4910c44a"><path d="M 267.148438 144.015625 L 354.148438 144.015625 L 354.148438 231.015625 L 267.148438 231.015625 Z M 267.148438 144.015625 " clip-rule="nonzero"/></clipPath><clipPath id="04d9cc9ecc"><path d="M 291 167 L 334 167 L 334 211 L 291 211 Z M 291 167 " clip-rule="nonzero"/></clipPath><clipPath id="d65ca91805"><path d="M 302.175781 161.136719 L 334.503906 193.464844 L 317.398438 210.570312 L 285.070312 178.242188 Z M 302.175781 161.136719 " clip-rule="nonzero"/></clipPath><clipPath id="94e5a2399d"><path d="M 333.59375 192.554688 L 308.875 167.839844 C 308.613281 167.574219 308.238281 167.445312 307.859375 167.5 L 294.394531 169.445312 C 293.867188 169.519531 293.453125 169.933594 293.378906 170.460938 L 291.433594 183.925781 C 291.378906 184.304688 291.507812 184.679688 291.773438 184.941406 L 316.488281 209.660156 C 316.957031 210.128906 317.710938 210.128906 318.179688 209.660156 L 333.59375 194.246094 C 334.0625 193.777344 334.0625 193.023438 333.59375 192.554688 M 296.535156 174.914062 C 295.898438 174.277344 295.898438 173.242188 296.535156 172.601562 C 297.175781 171.964844 298.210938 171.964844 298.847656 172.601562 C 299.488281 173.242188 299.488281 174.277344 298.847656 174.914062 C 298.210938 175.554688 297.175781 175.554688 296.535156 174.914062 " clip-rule="nonzero"/></clipPath></defs><rect x="-37.5" width="450" fill="#ffffff" y="-37.499999" height="449.999989" fill-opacity="1"/><g clip-path="url(#5cfc3f97b2)"><path fill="#2416bf" d="M 20.644531 144.015625 L 267.394531 144.015625 L 267.394531 231.015625 L 20.644531 231.015625 Z M 20.644531 144.015625 " fill-opacity="1" fill-rule="nonzero"/></g><g clip-path="url(#bd4910c44a)"><path fill="#fac815" d="M 267.148438 144.015625 L 354.148438 144.015625 L 354.148438 231.015625 L 267.148438 231.015625 Z M 267.148438 144.015625 " fill-opacity="1" fill-rule="nonzero"/></g><g clip-path="url(#04d9cc9ecc)"><g clip-path="url(#d65ca91805)"><g clip-path="url(#94e5a2399d)"><path fill="#2416bf" d="M 302.269531 161.230469 L 334.410156 193.371094 L 317.304688 210.476562 L 285.164062 178.335938 Z M 302.269531 161.230469 " fill-opacity="1" fill-rule="nonzero"/></g></g></g><g fill="#ffffff" fill-opacity="1"><g transform="translate(35.308066, 202.407723)"><g><path d="M 22.875 -0.34375 C 21.894531 -0.144531 20.628906 0.015625 19.078125 0.140625 C 17.535156 0.273438 16.078125 0.34375 14.703125 0.34375 C 10.859375 0.34375 8.035156 -0.101562 6.234375 -1 C 4.429688 -1.90625 3.242188 -3.382812 2.671875 -5.4375 C 2.097656 -7.488281 1.8125 -10.609375 1.8125 -14.796875 C 1.8125 -18.972656 2.097656 -22.085938 2.671875 -24.140625 C 3.242188 -26.191406 4.429688 -27.664062 6.234375 -28.5625 C 8.035156 -29.46875 10.859375 -29.921875 14.703125 -29.921875 C 16.054688 -29.921875 17.476562 -29.84375 18.96875 -29.6875 C 20.457031 -29.53125 21.703125 -29.335938 22.703125 -29.109375 L 22.703125 -22.40625 C 19.609375 -22.632812 17.734375 -22.75 17.078125 -22.75 C 15.265625 -22.75 14.03125 -22.585938 13.375 -22.265625 C 12.71875 -21.953125 12.304688 -21.316406 12.140625 -20.359375 C 11.984375 -19.398438 11.90625 -17.546875 11.90625 -14.796875 C 11.90625 -12.035156 11.984375 -10.175781 12.140625 -9.21875 C 12.304688 -8.257812 12.71875 -7.625 13.375 -7.3125 C 14.03125 -7 15.265625 -6.84375 17.078125 -6.84375 C 19.160156 -6.84375 21.09375 -6.957031 22.875 -7.1875 Z M 22.875 -0.34375 "/></g></g></g><g fill="#ffffff" fill-opacity="1"><g transform="translate(58.69954, 202.407723)"><g><path d="M 2.1875 0 L 2.1875 -29.578125 L 12.25 -29.578125 L 12.25 -7.5625 L 22.140625 -7.5625 L 22.140625 0 Z M 2.1875 0 "/></g></g></g><g fill="#ffffff" fill-opacity="1"><g transform="translate(80.629047, 202.407723)"><g><path d="M 2.1875 0 L 2.1875 -29.578125 L 12.25 -29.578125 L 12.25 0 Z M 2.1875 0 "/></g></g></g><g fill="#ffffff" fill-opacity="1"><g transform="translate(94.087742, 202.407723)"><g><path d="M 22.875 -0.34375 C 21.894531 -0.144531 20.628906 0.015625 19.078125 0.140625 C 17.535156 0.273438 16.078125 0.34375 14.703125 0.34375 C 10.859375 0.34375 8.035156 -0.101562 6.234375 -1 C 4.429688 -1.90625 3.242188 -3.382812 2.671875 -5.4375 C 2.097656 -7.488281 1.8125 -10.609375 1.8125 -14.796875 C 1.8125 -18.972656 2.097656 -22.085938 2.671875 -24.140625 C 3.242188 -26.191406 4.429688 -27.664062 6.234375 -28.5625 C 8.035156 -29.46875 10.859375 -29.921875 14.703125 -29.921875 C 16.054688 -29.921875 17.476562 -29.84375 18.96875 -29.6875 C 20.457031 -29.53125 21.703125 -29.335938 22.703125 -29.109375 L 22.703125 -22.40625 C 19.609375 -22.632812 17.734375 -22.75 17.078125 -22.75 C 15.265625 -22.75 14.03125 -22.585938 13.375 -22.265625 C 12.71875 -21.953125 12.304688 -21.316406 12.140625 -20.359375 C 11.984375 -19.398438 11.90625 -17.546875 11.90625 -14.796875 C 11.90625 -12.035156 11.984375 -10.175781 12.140625 -9.21875 C 12.304688 -8.257812 12.71875 -7.625 13.375 -7.3125 C 14.03125 -7 15.265625 -6.84375 17.078125 -6.84375 C 19.160156 -6.84375 21.09375 -6.957031 22.875 -7.1875 Z M 22.875 -0.34375 "/></g></g></g><g fill="#ffffff" fill-opacity="1"><g transform="translate(117.479212, 202.407723)"><g><path d="M 18.96875 0 L 12.6875 -11.53125 L 12.25 -11.53125 L 12.25 0 L 2.1875 0 L 2.1875 -29.578125 L 12.25 -29.578125 L 12.25 -18.53125 L 12.6875 -18.53125 L 19.09375 -29.578125 L 29.796875 -29.578125 L 20.890625 -15.6875 L 29.921875 0 Z M 18.96875 0 "/></g></g></g><g fill="#ffffff" fill-opacity="1"><g transform="translate(146.417576, 202.407723)"><g><path d="M 22.875 -0.34375 C 21.894531 -0.144531 20.628906 0.015625 19.078125 0.140625 C 17.535156 0.273438 16.078125 0.34375 14.703125 0.34375 C 10.859375 0.34375 8.035156 -0.101562 6.234375 -1 C 4.429688 -1.90625 3.242188 -3.382812 2.671875 -5.4375 C 2.097656 -7.488281 1.8125 -10.609375 1.8125 -14.796875 C 1.8125 -18.972656 2.097656 -22.085938 2.671875 -24.140625 C 3.242188 -26.191406 4.429688 -27.664062 6.234375 -28.5625 C 8.035156 -29.46875 10.859375 -29.921875 14.703125 -29.921875 C 16.054688 -29.921875 17.476562 -29.84375 18.96875 -29.6875 C 20.457031 -29.53125 21.703125 -29.335938 22.703125 -29.109375 L 22.703125 -22.40625 C 19.609375 -22.632812 17.734375 -22.75 17.078125 -22.75 C 15.265625 -22.75 14.03125 -22.585938 13.375 -22.265625 C 12.71875 -21.953125 12.304688 -21.316406 12.140625 -20.359375 C 11.984375 -19.398438 11.90625 -17.546875 11.90625 -14.796875 C 11.90625 -12.035156 11.984375 -10.175781 12.140625 -9.21875 C 12.304688 -8.257812 12.71875 -7.625 13.375 -7.3125 C 14.03125 -7 15.265625 -6.84375 17.078125 -6.84375 C 19.160156 -6.84375 21.09375 -6.957031 22.875 -7.1875 Z M 22.875 -0.34375 "/></g></g></g><g fill="#ffffff" fill-opacity="1"><g transform="translate(169.809046, 202.407723)"><g><path d="M 20.203125 0 L 19.140625 -4.421875 L 10.578125 -4.421875 L 9.546875 0 L -0.21875 0 L 8 -29.578125 L 21.96875 -29.578125 L 30.1875 0 Z M 15 -21.5 L 14.625 -21.5 L 12.21875 -11.3125 L 17.453125 -11.3125 Z M 15 -21.5 "/></g></g></g><g fill="#ffffff" fill-opacity="1"><g transform="translate(198.7904, 202.407723)"><g><path d="M 17.25 0 L 14.28125 -9.84375 L 12.25 -9.84375 L 12.25 0 L 2.1875 0 L 2.1875 -29.578125 L 17.765625 -29.578125 C 20.335938 -29.578125 22.28125 -29.226562 23.59375 -28.53125 C 24.914062 -27.832031 25.800781 -26.789062 26.25 -25.40625 C 26.695312 -24.03125 26.921875 -22.125 26.921875 -19.6875 C 26.921875 -17.394531 26.691406 -15.566406 26.234375 -14.203125 C 25.773438 -12.847656 24.867188 -11.796875 23.515625 -11.046875 L 27.5625 0 Z M 14.0625 -16.515625 C 14.945312 -16.515625 15.566406 -16.570312 15.921875 -16.6875 C 16.285156 -16.800781 16.53125 -17.050781 16.65625 -17.4375 C 16.789062 -17.820312 16.859375 -18.515625 16.859375 -19.515625 C 16.859375 -20.546875 16.8125 -21.25 16.71875 -21.625 C 16.632812 -22 16.40625 -22.25 16.03125 -22.375 C 15.664062 -22.507812 14.992188 -22.578125 14.015625 -22.578125 L 12.25 -22.578125 L 12.25 -16.515625 Z M 14.0625 -16.515625 "/></g></g></g><g fill="#ffffff" fill-opacity="1"><g transform="translate(226.395777, 202.407723)"><g><path d="M 7.78125 0 L 7.78125 -22.015625 L 0.5625 -22.015625 L 0.5625 -29.578125 L 25.109375 -29.578125 L 25.109375 -22.015625 L 17.84375 -22.015625 L 17.84375 0 Z M 7.78125 0 "/></g></g></g></svg>