<?xml version="1.0" encoding="utf-8"?>
<!-- Generator: Adobe Illustrator 27.1.0, SVG Export Plug-In . SVG Version: 6.00 Build 0)  -->
<svg version="1.1" id="Layer_1" xmlns="http://www.w3.org/2000/svg" xmlns:xlink="http://www.w3.org/1999/xlink" x="0px" y="0px"
	 viewBox="0 0 500 500" style="enable-background:new 0 0 500 500;" xml:space="preserve">
<style type="text/css">
	.st0{clip-path:url(#SVGID_00000077303140929364141030000003433708452774796732_);}
	.st1{fill:#100F0F;}
	.st2{clip-path:url(#SVGID_00000084489169280007307410000015015837391161602470_);}
	.st3{fill:#F79326;}
	.st4{clip-path:url(#SVGID_00000165203191940022974880000012136542917285585058_);}
	.st5{fill:#F9AF23;}
	.st6{clip-path:url(#SVGID_00000049222745349688147100000000455551017232247472_);}
	.st7{fill:#141515;}
	.st8{clip-path:url(#SVGID_00000161607274958108803420000005180660132174991551_);}
	.st9{fill:#D22B34;}
	.st10{clip-path:url(#SVGID_00000036957576299476461960000016113554544186679215_);}
	.st11{fill:#EF323D;}
	.st12{fill:#FED054;}
</style>
<g>
	<defs>
		<rect id="SVGID_1_" x="98.7" y="158.2" width="46.7" height="49.8"/>
	</defs>
	<clipPath id="SVGID_00000169542510090262398810000000496875762758810041_">
		<use xlink:href="#SVGID_1_"  style="overflow:visible;"/>
	</clipPath>
	<g style="clip-path:url(#SVGID_00000169542510090262398810000000496875762758810041_);">
		<path class="st1" d="M141.6,208c-1.4,0-2.6-1.2-2.6-2.6v-24.5c0-9.6-7.8-17.5-17.5-17.5c-9.6,0-17.5,7.8-17.5,17.5v24.5
			c0,1.4-1.2,2.6-2.6,2.6c-1.4,0-2.6-1.2-2.6-2.6v-24.5c0-12.5,10.2-22.7,22.7-22.7c12.5,0,22.7,10.2,22.7,22.7v24.5
			C144.2,206.8,143,208,141.6,208"/>
	</g>
</g>
<g>
	<defs>
		<rect id="SVGID_00000088833114705346778560000015589417500764522398_" x="65.6" y="188" width="114.4" height="145.2"/>
	</defs>
	<clipPath id="SVGID_00000044159509936599513490000011103423523510371982_">
		<use xlink:href="#SVGID_00000088833114705346778560000015589417500764522398_"  style="overflow:visible;"/>
	</clipPath>
	<g style="clip-path:url(#SVGID_00000044159509936599513490000011103423523510371982_);">
		<path class="st3" d="M179.9,326.8c0,3.5-2.8,6.3-6.3,6.3H71.9c-3.5,0-6.3-2.8-6.3-6.3l11.8-131.4c0-3.5,2.8-6.3,6.3-6.3h78
			c3.5,0,6.3,2.8,6.3,6.3L179.9,326.8"/>
	</g>
</g>
<g>
	<defs>
		<rect id="SVGID_00000003788546421996894560000005265714871444456378_" x="74.7" y="188" width="116" height="145.2"/>
	</defs>
	<clipPath id="SVGID_00000082350771332225855930000003054309228680519337_">
		<use xlink:href="#SVGID_00000003788546421996894560000005265714871444456378_"  style="overflow:visible;"/>
	</clipPath>
	<g style="clip-path:url(#SVGID_00000082350771332225855930000003054309228680519337_);">
		<path class="st5" d="M190.2,326.8c0,3.5-2.8,6.3-6.3,6.3H82.2c-3.5,0-6.3-2.8-6.3-6.3l11.8-131.4c0-3.5,2.8-6.3,6.3-6.3h78
			c3.5,0,6.3,2.8,6.3,6.3L190.2,326.8"/>
	</g>
</g>
<path class="st3" d="M118.6,205.4c0,3.3-2.7,6-6,6s-6-2.7-6-6c0-3.3,2.7-6,6-6S118.6,202.1,118.6,205.4"/>
<path class="st3" d="M159.5,205.4c0,3.3-2.7,6-6,6c-3.3,0-6-2.7-6-6c0-3.3,2.7-6,6-6C156.8,199.4,159.5,202.1,159.5,205.4"/>
<g>
	<defs>
		<rect id="SVGID_00000101796174297884187560000011820958629388520890_" x="109.3" y="158.2" width="46.7" height="49.8"/>
	</defs>
	<clipPath id="SVGID_00000029043251722569556510000000638580427037145240_">
		<use xlink:href="#SVGID_00000101796174297884187560000011820958629388520890_"  style="overflow:visible;"/>
	</clipPath>
	<g style="clip-path:url(#SVGID_00000029043251722569556510000000638580427037145240_);">
		<path class="st7" d="M153.1,208c-1.4,0-2.6-1.2-2.6-2.6v-24.5c0-9.6-7.8-17.5-17.5-17.5c-9.6,0-17.5,7.8-17.5,17.5v24.5
			c0,1.4-1.2,2.6-2.6,2.6c-1.4,0-2.6-1.2-2.6-2.6v-24.5c0-12.5,10.2-22.7,22.7-22.7c12.5,0,22.7,10.2,22.7,22.7v24.5
			C155.7,206.8,154.5,208,153.1,208"/>
	</g>
</g>
<path class="st1" d="M197.3,272.6c-1.4,0-2.6-1.2-2.6-2.6v-24.5c0-9.6-7.8-17.5-17.5-17.5c-9.6,0-17.5,7.8-17.5,17.5V270
	c0,1.4-1.2,2.6-2.6,2.6c-1.4,0-2.6-1.2-2.6-2.6v-24.5c0-12.5,10.2-22.7,22.7-22.7c12.5,0,22.7,10.2,22.7,22.7V270
	C199.9,271.4,198.7,272.6,197.3,272.6"/>
<g>
	<defs>
		<rect id="SVGID_00000160148792972761852690000007546285582608671651_" x="132" y="253.3" width="93.3" height="79.8"/>
	</defs>
	<clipPath id="SVGID_00000097461109690479087020000006373864152427952032_">
		<use xlink:href="#SVGID_00000160148792972761852690000007546285582608671651_"  style="overflow:visible;"/>
	</clipPath>
	<g style="clip-path:url(#SVGID_00000097461109690479087020000006373864152427952032_);">
		<path class="st9" d="M225.3,326.8c0,3.5-2.8,6.3-6.3,6.3h-79.6c-3.5,0-6.3-2.8-6.3-6.3l0.1-66.8c0-3.5,2.8-6.3,6.3-6.3h78
			c3.5,0,6.3,2.8,6.3,6.3L225.3,326.8"/>
	</g>
</g>
<g>
	<defs>
		<rect id="SVGID_00000154421303909035135980000009240018469815353788_" x="133.5" y="253.3" width="92.9" height="79.8"/>
	</defs>
	<clipPath id="SVGID_00000179630446910390375980000013489711537180029358_">
		<use xlink:href="#SVGID_00000154421303909035135980000009240018469815353788_"  style="overflow:visible;"/>
	</clipPath>
	<g style="clip-path:url(#SVGID_00000179630446910390375980000013489711537180029358_);">
		<path class="st11" d="M226.5,326.8c0,3.5-2.8,6.3-6.3,6.3h-79.6c-3.5,0-6.3-2.8-6.3-6.3l0.1-66.8c0-3.5,2.8-6.3,6.3-6.3h78
			c3.5,0,6.3,2.8,6.3,6.3L226.5,326.8"/>
	</g>
</g>
<path class="st9" d="M174.4,270c0,3.3-2.7,6-6,6c-3.3,0-6-2.7-6-6c0-3.3,2.7-6,6-6C171.6,264,174.4,266.7,174.4,270"/>
<path class="st9" d="M215.2,270c0,3.3-2.7,6-6,6s-6-2.7-6-6c0-3.3,2.7-6,6-6S215.2,266.7,215.2,270"/>
<path class="st7" d="M208.8,272.6c-1.4,0-2.6-1.2-2.6-2.6v-24.5c0-9.6-7.8-17.5-17.5-17.5c-9.6,0-17.5,7.8-17.5,17.5V270
	c0,1.4-1.2,2.6-2.6,2.6c-1.4,0-2.6-1.2-2.6-2.6v-24.5c0-12.5,10.2-22.7,22.7-22.7c12.5,0,22.7,10.2,22.7,22.7V270
	C211.4,271.4,210.3,272.6,208.8,272.6"/>
<g>
	<g transform="translate(195.021481, 205.48317)">
		<g>
			<path class="st11" d="M65.2,61.1c1.7,0,3.4-0.2,5-0.7c1.6-0.5,2.8-0.9,3.5-1.4l1.1-0.7l4.7,9c-0.2,0.1-0.4,0.3-0.7,0.5
				c-0.3,0.2-0.9,0.5-1.9,1c-1,0.5-2.1,0.9-3.2,1.3c-1.1,0.4-2.6,0.7-4.5,1c-1.9,0.3-3.8,0.5-5.8,0.5c-4.5,0-8.9-1-12.9-3.1
				c-4.1-2.1-7.3-5-9.8-8.7c-2.5-3.7-3.7-7.7-3.7-12c0-3.2,0.7-6.4,2.2-9.4c1.5-3,3.4-5.5,5.8-7.7s5.3-3.8,8.5-5.1
				c3.2-1.3,6.6-1.9,10-1.9c3.2,0,6.1,0.4,8.7,1.1c2.7,0.7,4.6,1.4,5.7,2.1l1.7,1.1l-4.7,9c-0.3-0.2-0.7-0.5-1.3-0.8
				c-0.5-0.3-1.6-0.7-3.3-1.3c-1.7-0.5-3.3-0.8-5.1-0.8c-2.7,0-5.1,0.4-7.2,1.2c-2.1,0.8-3.8,1.9-5.1,3.2c-1.2,1.3-2.2,2.8-2.8,4.3
				c-0.7,1.5-1,3.1-1,4.7c0,3.5,1.4,6.7,4.2,9.4C56,59.7,60,61.1,65.2,61.1z"/>
		</g>
	</g>
</g>
<g>
	<g transform="translate(224.547479, 205.48317)">
		<g>
			<path class="st11" d="M65.4,24.7v37h16.8V71h-28V24.7H65.4z"/>
		</g>
	</g>
</g>
<g>
	<g transform="translate(246.177478, 205.48317)">
		<g>
			<path class="st11" d="M79,24.7V71H64.9V24.7H79z"/>
		</g>
	</g>
</g>
<g>
	<g transform="translate(257.013476, 205.48317)">
		<g>
			<path class="st11" d="M99.4,61.4c1.7,0,3.4-0.2,5-0.7c1.6-0.5,2.8-0.9,3.5-1.4l1.1-0.7l4.7,9c-0.2,0.1-0.4,0.3-0.7,0.5
				c-0.3,0.2-0.9,0.5-1.9,1c-1,0.5-2.1,0.9-3.2,1.3c-1.1,0.4-2.6,0.7-4.5,1c-1.9,0.3-3.8,0.5-5.8,0.5c-4.5,0-8.9-1-12.9-3.1
				c-4.1-2.1-7.3-5-9.8-8.7c-2.5-3.7-3.7-7.7-3.7-12c0-3.2,0.7-6.4,2.2-9.4c1.5-3,3.4-5.5,5.8-7.7s5.3-3.8,8.5-5.1
				c3.2-1.3,6.6-1.9,10-1.9c3.2,0,6.1,0.4,8.7,1.1c2.7,0.7,4.6,1.4,5.7,2.1l1.7,1.1l-4.7,9c-0.3-0.2-0.7-0.5-1.3-0.8
				c-0.5-0.3-1.6-0.7-3.3-1.3c-1.7-0.5-3.3-0.8-5.1-0.8c-2.7,0-5.1,0.4-7.2,1.2c-2.1,0.8-3.8,1.9-5.1,3.2c-1.2,1.3-2.2,2.8-2.8,4.3
				c-0.7,1.5-1,3.1-1,4.7c0,3.5,1.4,6.7,4.2,9.4C90.3,60,94.3,61.4,99.4,61.4z"/>
		</g>
	</g>
</g>
<g>
	<g transform="translate(286.539477, 205.48317)">
		<g>
			<path class="st11" d="M132.2,69.8h-15.4l-18-19.6v19.6H87.6V23.6h11.2v18.9l16.8-18.9h13.5l-19.7,21.9L132.2,69.8z"/>
		</g>
	</g>
</g>
<g>
	<g transform="translate(317.482411, 205.48317)">
	</g>
</g>
<g>
	<g transform="translate(326.848406, 205.48317)">
	</g>
</g>
<g>
	<g transform="translate(336.214401, 205.48317)">
	</g>
</g>
<g>
	<g transform="translate(345.580395, 205.48317)">
	</g>
</g>
<g>
	<g transform="translate(354.946391, 205.48317)">
	</g>
</g>
<g>
	<g transform="translate(364.312387, 205.48317)">
	</g>
</g>
<g>
	<g transform="translate(373.678379, 205.48317)">
	</g>
</g>
<g>
	<g transform="translate(195.021481, 245.233167)">
		<g>
			<path class="st11" d="M77.1,72.3c1.5,0,2.9-0.2,4.3-0.7c1.4-0.5,2.4-0.9,3-1.4l1-0.7l4.1,9c-0.1,0.1-0.3,0.3-0.6,0.5
				c-0.2,0.2-0.8,0.5-1.7,1c-0.9,0.5-1.8,0.9-2.8,1.3c-1,0.4-2.3,0.7-3.9,1c-1.6,0.3-3.2,0.5-5,0.5c-3.9,0-7.6-1-11.1-3.1
				c-3.5-2.1-6.3-5-8.5-8.7c-2.1-3.7-3.2-7.7-3.2-12c0-3.2,0.6-6.4,1.9-9.4c1.3-3,2.9-5.5,5-7.7c2.1-2.1,4.5-3.8,7.3-5.1
				c2.8-1.3,5.7-1.9,8.6-1.9c2.7,0,5.2,0.4,7.5,1.1c2.3,0.7,3.9,1.4,4.9,2.1l1.4,1.1l-4.1,9c-0.2-0.2-0.6-0.5-1.1-0.8
				c-0.5-0.3-1.4-0.7-2.8-1.3c-1.4-0.5-2.9-0.8-4.3-0.8c-2.3,0-4.4,0.4-6.2,1.2c-1.8,0.8-3.3,1.9-4.4,3.2c-1.1,1.3-1.9,2.8-2.4,4.3
				c-0.6,1.5-0.8,3.1-0.8,4.7c0,3.5,1.2,6.7,3.6,9.4C69.2,70.9,72.6,72.3,77.1,72.3z"/>
		</g>
	</g>
</g>
<g>
	<g transform="translate(224.547479, 245.233167)">
		<g>
			<path class="st11" d="M86.1,35.1l19.8,46.2h-12L90.3,72H71.6L68,81.3H56l19.8-46.2H86.1z M86.5,62.8L81,49.4h-0.1l-5.5,13.4H86.5
				z"/>
		</g>
	</g>
</g>
<g>
	<g transform="translate(255.375471, 245.233167)">
		<g>
			<path class="st11" d="M79,35.1h17.5c4.7,0,8.5,1.2,11.5,3.6c3,2.4,4.5,5.8,4.5,10.2c0,3.4-0.9,6.3-2.7,8.5
				c-1.8,2.3-4.2,3.9-7.3,4.8l16.8,19.1h-14.2L90.2,63v18.3H79V35.1z M90.2,55.6h1.3c1,0,1.9,0,2.6,0c0.7,0,1.5-0.2,2.4-0.4
				c0.9-0.2,1.6-0.5,2.2-1c0.6-0.4,1-1,1.4-1.8c0.4-0.8,0.6-1.7,0.6-2.9s-0.2-2.1-0.6-2.9c-0.4-0.8-0.9-1.4-1.4-1.8
				c-0.5-0.4-1.3-0.7-2.2-1c-0.9-0.2-1.7-0.3-2.4-0.4c-0.7,0-1.6-0.1-2.6-0.1h-1.3V55.6z"/>
		</g>
	</g>
</g>
<g>
	<g transform="translate(283.347468, 245.233167)">
		<g>
			<path class="st11" d="M86.9,44.3v-9.2h34.4v9.2h-11.6v37H98.5v-37H86.9z"/>
		</g>
	</g>
</g>
<g>
	<g transform="translate(176.540412, 155.461675)">
		<g>
			<path class="st12" d="M48.8,47.4c0-0.1-0.1-0.1-0.1-0.2l-4.1-8c-0.1-0.2,0-0.4,0.1-0.6c0.1-0.2,0.3-0.3,0.5-0.4
				c0.2-0.1,0.4-0.1,0.7-0.1c0.2,0,0.4,0.2,0.6,0.5l3.4,6.4l2.9-6.4c0.1-0.3,0.3-0.5,0.5-0.5c0.2-0.1,0.5,0,0.7,0.1
				c0.2,0.1,0.4,0.2,0.5,0.4c0.1,0.2,0.2,0.4,0.1,0.6l-3.8,8.1l0,6.5c0,0.3-0.1,0.6-0.3,0.7c-0.2,0.1-0.4,0.2-0.7,0.2
				c-0.2,0-0.5-0.1-0.7-0.2c-0.2-0.1-0.3-0.3-0.3-0.5L48.8,47.4z"/>
		</g>
	</g>
</g>
<g>
	<g transform="translate(185.44033, 155.461675)">
		<g>
			<path class="st12" d="M48.1,46.2c0-1.1,0.1-2.2,0.4-3.2s0.7-1.9,1.2-2.6c0.5-0.8,1.1-1.3,1.8-1.8c0.7-0.4,1.4-0.7,2.2-0.7
				c0.8,0,1.5,0.2,2.2,0.7c0.7,0.4,1.3,1,1.8,1.8c0.5,0.8,0.9,1.6,1.2,2.6c0.3,1,0.4,2.1,0.4,3.2c0,1.1-0.1,2.2-0.4,3.1
				c-0.3,1-0.7,1.8-1.2,2.5c-0.5,0.7-1.1,1.3-1.8,1.7c-0.7,0.4-1.4,0.6-2.2,0.6c-0.8,0-1.5-0.2-2.2-0.6c-0.7-0.4-1.3-1-1.8-1.7
				c-0.5-0.7-0.9-1.6-1.2-2.5C48.3,48.4,48.1,47.4,48.1,46.2z M50,46.4c0,0.8,0.1,1.5,0.3,2.2c0.2,0.7,0.5,1.3,0.8,1.9
				c0.3,0.5,0.8,0.9,1.2,1.2c0.5,0.3,0.9,0.4,1.5,0.4c0.5,0,1-0.1,1.4-0.4c0.5-0.3,0.9-0.7,1.2-1.2c0.3-0.5,0.6-1.2,0.8-1.9
				c0.2-0.7,0.3-1.5,0.3-2.2c0-0.8-0.1-1.6-0.3-2.3c-0.2-0.8-0.5-1.4-0.8-2c-0.3-0.6-0.8-1.1-1.2-1.4c-0.5-0.4-1-0.5-1.5-0.5
				c-0.5,0-1,0.2-1.5,0.5c-0.4,0.4-0.8,0.8-1.2,1.4c-0.3,0.6-0.6,1.2-0.8,2C50.1,44.8,50,45.6,50,46.4z"/>
		</g>
	</g>
</g>
<g>
	<g transform="translate(196.214516, 155.461675)">
		<g>
			<path class="st12" d="M53.6,38.7c-0.1,2.1-0.2,3.9-0.1,5.4c0,1.5,0.1,2.7,0.2,3.8c0.1,1.1,0.2,2,0.5,2.6c0.2,0.6,0.5,1,0.8,1.3
				c0.3,0.3,0.6,0.5,0.8,0.5c0.3,0.1,0.5,0.1,0.6,0.1c0.2,0,0.5-0.1,0.8-0.2c0.3-0.1,0.6-0.3,1-0.6c0.3-0.3,0.6-0.7,0.9-1.1
				c0.3-0.5,0.5-1.1,0.6-1.8l0.2-9.7c0-0.3,0.1-0.5,0.3-0.7c0.2-0.2,0.4-0.3,0.6-0.3c0.2,0,0.5,0,0.7,0.2c0.2,0.1,0.4,0.4,0.4,0.8
				l-0.2,14.7c0,0.3-0.1,0.6-0.3,0.7c-0.2,0.1-0.4,0.2-0.7,0.2c-0.2,0-0.5-0.1-0.7-0.2c-0.2-0.1-0.3-0.3-0.3-0.5l0-1.2
				c-0.3,0.4-0.7,0.8-1.2,1.2c-0.5,0.4-1.1,0.6-1.8,0.6c-1.1,0-2-0.2-2.7-0.7c-0.7-0.5-1.2-1.1-1.5-1.8c-0.3-0.8-0.6-1.6-0.7-2.5
				c-0.1-0.9-0.2-1.9-0.2-2.8c0-1-0.1-2.2-0.1-3.4c0-1.3,0-2.7,0.1-4.3c0-0.3,0.1-0.6,0.3-0.7c0.2-0.1,0.5-0.2,0.7-0.2
				c0.2,0,0.5,0.1,0.7,0.2C53.5,38.3,53.6,38.5,53.6,38.7z"/>
		</g>
	</g>
</g>
<g>
	<g transform="translate(205.817284, 155.461675)">
		<g>
			<path class="st12" d="M56.9,53.8c-0.1,0.2-0.2,0.3-0.5,0.4c-0.2,0.1-0.4,0.1-0.6,0.1c-0.2,0-0.4-0.1-0.6-0.1
				C55.1,54.1,55,54,55,53.8l0-13.6c0-0.7,0.2-1.2,0.5-1.6C56,38.2,56.5,38,57,38c0.3,0,0.6,0,1.1,0c0.5,0,0.9,0,1.5,0.1
				c0.5,0.1,1.1,0.2,1.6,0.4s1,0.4,1.5,0.7c0.4,0.3,0.8,0.7,1.1,1.2c0.3,0.5,0.4,1.2,0.5,1.9c0,0.4-0.1,0.8-0.2,1.2
				c-0.1,0.4-0.3,0.8-0.5,1.1c-0.2,0.3-0.5,0.6-0.8,0.9c-0.3,0.3-0.6,0.5-0.9,0.6l2.7,7.2c0.1,0.2,0,0.4-0.2,0.6
				c-0.2,0.2-0.4,0.2-0.7,0.3c-0.3,0-0.5,0-0.8,0c-0.2-0.1-0.4-0.2-0.4-0.3l-2.7-7.4c-0.6,0.1-1.1,0.2-1.6,0.2
				c-0.5,0-0.9-0.1-1.1-0.1V53.8z M62.3,42.3c0-0.3-0.1-0.7-0.4-1c-0.3-0.3-0.6-0.6-1.1-0.9c-0.5-0.2-1-0.4-1.7-0.5
				c-0.7-0.1-1.4-0.1-2.1,0.1v4.7c0.5,0.1,1,0.1,1.6,0.1c0.6,0,1.2-0.1,1.8-0.2c0.6-0.2,1-0.4,1.4-0.8
				C62.1,43.4,62.3,42.9,62.3,42.3z"/>
		</g>
	</g>
</g>
<g>
	<g transform="translate(215.185769, 155.461675)">
	</g>
</g>
<g>
	<g transform="translate(220.844766, 155.461675)">
		<g>
			<path class="st12" d="M59.9,46.2c0-1.1,0.1-2.2,0.4-3.2c0.3-1,0.7-1.9,1.2-2.6c0.5-0.8,1.1-1.3,1.8-1.8c0.7-0.4,1.4-0.7,2.2-0.7
				c0.8,0,1.5,0.2,2.2,0.7c0.7,0.4,1.3,1,1.8,1.8c0.5,0.8,0.9,1.6,1.2,2.6s0.4,2.1,0.4,3.2c0,1.1-0.1,2.2-0.4,3.1
				c-0.3,1-0.7,1.8-1.2,2.5c-0.5,0.7-1.1,1.3-1.8,1.7c-0.7,0.4-1.4,0.6-2.2,0.6c-0.8,0-1.5-0.2-2.2-0.6c-0.7-0.4-1.3-1-1.8-1.7
				c-0.5-0.7-0.9-1.6-1.2-2.5C60.1,48.4,59.9,47.4,59.9,46.2z M61.8,46.4c0,0.8,0.1,1.5,0.3,2.2c0.2,0.7,0.5,1.3,0.8,1.9
				c0.3,0.5,0.8,0.9,1.2,1.2c0.5,0.3,0.9,0.4,1.5,0.4c0.5,0,1-0.1,1.4-0.4c0.5-0.3,0.9-0.7,1.2-1.2c0.3-0.5,0.6-1.2,0.8-1.9
				c0.2-0.7,0.3-1.5,0.3-2.2c0-0.8-0.1-1.6-0.3-2.3c-0.2-0.8-0.5-1.4-0.8-2c-0.3-0.6-0.8-1.1-1.2-1.4c-0.5-0.4-1-0.5-1.5-0.5
				c-0.5,0-1,0.2-1.5,0.5c-0.4,0.4-0.8,0.8-1.2,1.4c-0.3,0.6-0.6,1.2-0.8,2C61.9,44.8,61.8,45.6,61.8,46.4z"/>
		</g>
	</g>
</g>
<g>
	<g transform="translate(231.618951, 155.461675)">
		<g>
			<path class="st12" d="M65.4,42.5l0,11.1c0,0.3-0.1,0.6-0.3,0.7c-0.2,0.1-0.4,0.2-0.7,0.2c-0.2,0-0.5-0.1-0.7-0.2
				c-0.2-0.1-0.3-0.3-0.3-0.5L63.3,39c0-0.2,0.2-0.4,0.3-0.6c0.2-0.1,0.4-0.2,0.6-0.2c0.2,0,0.4,0,0.7,0.1c0.2,0.1,0.4,0.2,0.5,0.4
				l6.7,11.4L72,39c0.1-0.3,0.2-0.5,0.4-0.6c0.2-0.1,0.4-0.2,0.7-0.1c0.2,0,0.5,0.1,0.7,0.2c0.2,0.2,0.3,0.3,0.3,0.6l0,14.6
				c0,0.2-0.1,0.4-0.2,0.5s-0.4,0.2-0.6,0.2c-0.2,0-0.4,0-0.6-0.1c-0.2-0.1-0.4-0.2-0.4-0.3L65.4,42.5z"/>
		</g>
	</g>
</g>
<g>
	<g transform="translate(241.573142, 155.461675)">
		<g>
			<path class="st12" d="M66.7,39c0.1-0.3,0.2-0.5,0.4-0.6c0.2-0.1,0.5-0.1,0.8-0.1c0.2,0,0.5,0.1,0.7,0.3c0.2,0.2,0.3,0.4,0.2,0.6
				l0,12.9l7.1-0.1c0.3,0.1,0.5,0.2,0.6,0.4c0.1,0.2,0.1,0.5,0,0.7c-0.1,0.2-0.2,0.5-0.4,0.6C76,54,75.8,54,75.6,54l-7.1,0.1
				c-0.2,0-0.3,0-0.5,0c-0.2,0-0.3-0.1-0.5-0.2c-0.2-0.1-0.3-0.2-0.4-0.4c-0.1-0.2-0.1-0.4-0.1-0.7L66.7,39z"/>
		</g>
	</g>
</g>
<g>
	<g transform="translate(250.824488, 155.461675)">
		<g>
			<path class="st12" d="M72.6,52.1l-0.1-12l-2.3,0c-0.3,0-0.6-0.1-0.7-0.3c-0.1-0.2-0.2-0.4-0.2-0.6c0-0.2,0.1-0.5,0.2-0.7
				c0.1-0.2,0.3-0.3,0.5-0.3h7.1c0.3,0.1,0.5,0.2,0.6,0.4c0.1,0.2,0.1,0.5,0.1,0.7c0,0.2-0.2,0.4-0.3,0.6c-0.2,0.2-0.4,0.2-0.6,0.2
				l-2.5,0l0,12l2.4,0c0.2-0.1,0.4,0,0.6,0.2c0.2,0.2,0.3,0.4,0.3,0.6c0,0.2,0,0.5-0.1,0.7c-0.1,0.2-0.3,0.4-0.6,0.4h-7.1
				c-0.2,0-0.4-0.1-0.5-0.3c-0.1-0.2-0.2-0.4-0.2-0.7c0-0.2,0-0.5,0.2-0.7c0.1-0.2,0.4-0.3,0.7-0.3L72.6,52.1L72.6,52.1z"/>
		</g>
	</g>
</g>
<g>
	<g transform="translate(258.670133, 155.461675)">
		<g>
			<path class="st12" d="M74.4,42.5l0,11.1c0,0.3-0.1,0.6-0.3,0.7c-0.2,0.1-0.4,0.2-0.7,0.2c-0.2,0-0.5-0.1-0.7-0.2
				c-0.2-0.1-0.3-0.3-0.3-0.5L72.4,39c0-0.2,0.2-0.4,0.3-0.6c0.2-0.1,0.4-0.2,0.6-0.2c0.2,0,0.4,0,0.7,0.1c0.2,0.1,0.4,0.2,0.5,0.4
				l6.7,11.4L81,39c0.1-0.3,0.2-0.5,0.4-0.6c0.2-0.1,0.4-0.2,0.7-0.1c0.2,0,0.5,0.1,0.7,0.2c0.2,0.2,0.3,0.3,0.3,0.6l0,14.6
				c0,0.2-0.1,0.4-0.2,0.5c-0.2,0.1-0.4,0.2-0.6,0.2c-0.2,0-0.4,0-0.6-0.1c-0.2-0.1-0.4-0.2-0.4-0.3L74.4,42.5z"/>
		</g>
	</g>
</g>
<g>
	<g transform="translate(268.624329, 155.461675)">
		<g>
			<path class="st12" d="M77.9,54.4c-0.2,0-0.3,0-0.5-0.1c-0.2,0-0.4-0.1-0.5-0.2c-0.2-0.1-0.3-0.2-0.4-0.2
				c-0.1-0.1-0.1-0.2-0.1-0.4l-0.2-14.2c0-0.5,0.1-0.8,0.4-1c0.2-0.2,0.7-0.4,1.4-0.4l7,0c0.3,0,0.6,0.1,0.7,0.3
				c0.1,0.2,0.2,0.4,0.2,0.7c0,0.2-0.1,0.5-0.2,0.7c-0.1,0.2-0.3,0.3-0.5,0.3L78.2,40v4.9l4.5,0c0.3,0,0.6,0.1,0.7,0.3
				c0.1,0.2,0.2,0.4,0.2,0.7c0,0.2-0.1,0.5-0.2,0.7c-0.1,0.2-0.3,0.3-0.5,0.3l-4.6,0.1l0,5.4l6.7,0.1c0.3,0,0.6,0.1,0.7,0.3
				c0.1,0.2,0.2,0.4,0.2,0.7c0,0.2-0.1,0.5-0.2,0.6c-0.1,0.2-0.3,0.3-0.5,0.3L77.9,54.4z"/>
		</g>
	</g>
</g>
<g>
	<g transform="translate(278.070912, 155.461675)">
	</g>
</g>
<g>
	<g transform="translate(283.729912, 155.461675)">
		<g>
			<path class="st12" d="M89.9,41.4c0.1,0.2,0.1,0.5-0.1,0.7c-0.1,0.2-0.3,0.3-0.5,0.4c-0.2,0.1-0.5,0.1-0.7,0
				c-0.2,0-0.4-0.2-0.4-0.4c-0.1-0.5-0.3-0.9-0.6-1.2c-0.2-0.3-0.5-0.5-0.8-0.7c-0.3-0.2-0.6-0.3-0.8-0.3c-0.3,0-0.5-0.1-0.6-0.1
				c-0.4,0-0.8,0-1.2,0.1c-0.4,0.1-0.7,0.3-0.9,0.5c-0.3,0.2-0.5,0.4-0.6,0.7c-0.2,0.3-0.2,0.5-0.3,0.8c0,0.6,0,1,0.2,1.4
				c0.2,0.4,0.5,0.7,0.9,0.9c0.4,0.2,0.8,0.5,1.3,0.6c0.5,0.2,1,0.4,1.6,0.6c0.5,0.2,1.1,0.5,1.6,0.8c0.5,0.3,1,0.6,1.4,1
				c0.4,0.4,0.7,0.9,0.9,1.4c0.2,0.6,0.3,1.2,0.2,2c-0.1,0.8-0.3,1.5-0.7,2.1c-0.4,0.6-0.9,1-1.5,1.3c-0.6,0.3-1.2,0.5-1.9,0.6
				c-0.7,0.1-1.3,0.1-2-0.1c-0.9-0.2-1.7-0.5-2.4-1c-0.7-0.5-1.2-1.3-1.4-2.1c0-0.3,0.1-0.6,0.2-0.8c0.2-0.2,0.4-0.3,0.6-0.4
				c0.2-0.1,0.5-0.1,0.7,0c0.2,0.1,0.3,0.2,0.4,0.5c0.1,0.6,0.4,1.1,0.9,1.4s1.1,0.5,1.7,0.6c0.4,0.1,0.8,0.1,1.2,0
				c0.4-0.1,0.7-0.2,1-0.4c0.3-0.2,0.6-0.4,0.8-0.8c0.2-0.3,0.4-0.7,0.4-1.1c0.1-0.5,0-0.9-0.1-1.2c-0.1-0.4-0.4-0.7-0.6-0.9
				c-0.3-0.3-0.6-0.5-1.1-0.7c-0.4-0.2-0.9-0.4-1.3-0.6c-0.6-0.2-1.2-0.5-1.8-0.7c-0.6-0.3-1.1-0.6-1.6-1c-0.5-0.4-0.8-0.9-1.1-1.4
				c-0.3-0.6-0.4-1.3-0.3-2.1c0.1-0.7,0.3-1.2,0.6-1.8c0.3-0.5,0.7-0.9,1.2-1.2c0.5-0.3,1-0.5,1.5-0.7c0.6-0.2,1.1-0.2,1.7-0.2
				c0.3,0,0.7,0.1,1.1,0.2c0.4,0.1,0.8,0.3,1.2,0.6c0.4,0.2,0.8,0.6,1.1,1C89.4,40.2,89.6,40.7,89.9,41.4z"/>
		</g>
	</g>
</g>
<g>
	<g transform="translate(292.805545, 155.461675)">
		<g>
			<path class="st12" d="M94.7,38.1c0.3,0.1,0.5,0.2,0.6,0.4c0.1,0.2,0.1,0.5,0.1,0.7c-0.1,0.2-0.2,0.4-0.4,0.6
				C94.9,40,94.7,40,94.4,40l-4.1,0l0,13.5c0,0.3-0.1,0.6-0.3,0.7c-0.2,0.1-0.4,0.2-0.7,0.2c-0.2,0-0.5-0.1-0.6-0.2
				c-0.2-0.1-0.3-0.3-0.3-0.5L88.3,40l-3.8,0c-0.3,0-0.6-0.1-0.7-0.3c-0.1-0.2-0.2-0.4-0.2-0.7c0-0.2,0.1-0.5,0.2-0.7
				c0.1-0.2,0.3-0.3,0.5-0.3H94.7z"/>
		</g>
	</g>
</g>
<g>
	<g transform="translate(303.306403, 155.461675)">
		<g>
			<path class="st12" d="M87.4,46.2c0-1.1,0.1-2.2,0.4-3.2s0.7-1.9,1.2-2.6c0.5-0.8,1.1-1.3,1.8-1.8c0.7-0.4,1.4-0.7,2.2-0.7
				c0.8,0,1.5,0.2,2.2,0.7c0.7,0.4,1.3,1,1.8,1.8c0.5,0.8,0.9,1.6,1.2,2.6c0.3,1,0.4,2.1,0.4,3.2c0,1.1-0.1,2.2-0.4,3.1
				c-0.3,1-0.7,1.8-1.2,2.5c-0.5,0.7-1.1,1.3-1.8,1.7c-0.7,0.4-1.4,0.6-2.2,0.6c-0.8,0-1.5-0.2-2.2-0.6c-0.7-0.4-1.3-1-1.8-1.7
				c-0.5-0.7-0.9-1.6-1.2-2.5C87.6,48.4,87.4,47.4,87.4,46.2z M89.3,46.4c0,0.8,0.1,1.5,0.3,2.2c0.2,0.7,0.5,1.3,0.8,1.9
				c0.3,0.5,0.8,0.9,1.2,1.2c0.5,0.3,0.9,0.4,1.5,0.4c0.5,0,1-0.1,1.4-0.4c0.5-0.3,0.9-0.7,1.2-1.2c0.3-0.5,0.6-1.2,0.8-1.9
				c0.2-0.7,0.3-1.5,0.3-2.2c0-0.8-0.1-1.6-0.3-2.3c-0.2-0.8-0.5-1.4-0.8-2c-0.3-0.6-0.8-1.1-1.2-1.4c-0.5-0.4-1-0.5-1.5-0.5
				c-0.5,0-1,0.2-1.5,0.5c-0.4,0.4-0.8,0.8-1.2,1.4c-0.3,0.6-0.6,1.2-0.8,2C89.4,44.8,89.3,45.6,89.3,46.4z"/>
		</g>
	</g>
</g>
<g>
	<g transform="translate(314.080591, 155.461675)">
		<g>
			<path class="st12" d="M93,53.8c-0.1,0.2-0.2,0.3-0.5,0.4c-0.2,0.1-0.4,0.1-0.6,0.1c-0.2,0-0.4-0.1-0.6-0.1
				c-0.2-0.1-0.2-0.2-0.2-0.4l0-13.6c0-0.7,0.2-1.2,0.5-1.6c0.4-0.4,0.9-0.6,1.4-0.6c0.3,0,0.6,0,1.1,0c0.5,0,0.9,0,1.5,0.1
				c0.5,0.1,1.1,0.2,1.6,0.4s1,0.4,1.5,0.7c0.4,0.3,0.8,0.7,1.1,1.2c0.3,0.5,0.4,1.2,0.5,1.9c0,0.4-0.1,0.8-0.2,1.2
				c-0.1,0.4-0.3,0.8-0.5,1.1c-0.2,0.3-0.5,0.6-0.8,0.9c-0.3,0.3-0.6,0.5-0.9,0.6l2.7,7.2c0.1,0.2,0,0.4-0.2,0.6
				c-0.2,0.2-0.4,0.2-0.7,0.3c-0.3,0-0.5,0-0.8,0c-0.2-0.1-0.4-0.2-0.4-0.3l-2.7-7.4c-0.6,0.1-1.1,0.2-1.6,0.2
				c-0.5,0-0.9-0.1-1.1-0.1V53.8z M98.4,42.3c0-0.3-0.1-0.7-0.4-1c-0.3-0.3-0.6-0.6-1.1-0.9c-0.5-0.2-1-0.4-1.7-0.5
				c-0.7-0.1-1.4-0.1-2.1,0.1v4.7c0.5,0.1,1,0.1,1.6,0.1c0.6,0,1.2-0.1,1.8-0.2c0.6-0.2,1-0.4,1.4-0.8
				C98.2,43.4,98.4,42.9,98.4,42.3z"/>
		</g>
	</g>
</g>
<g>
	<g transform="translate(323.449078, 155.461675)">
		<g>
			<path class="st12" d="M96.1,54.4c-0.2,0-0.3,0-0.5-0.1c-0.2,0-0.4-0.1-0.5-0.2c-0.2-0.1-0.3-0.2-0.4-0.2
				c-0.1-0.1-0.1-0.2-0.1-0.4l-0.2-14.2c0-0.5,0.1-0.8,0.4-1c0.2-0.2,0.7-0.4,1.4-0.4l7,0c0.3,0,0.6,0.1,0.7,0.3
				c0.1,0.2,0.2,0.4,0.2,0.7c0,0.2-0.1,0.5-0.2,0.7c-0.1,0.2-0.3,0.3-0.5,0.3L96.4,40v4.9l4.5,0c0.3,0,0.6,0.1,0.7,0.3
				c0.1,0.2,0.2,0.4,0.2,0.7c0,0.2-0.1,0.5-0.2,0.7c-0.1,0.2-0.3,0.3-0.5,0.3l-4.6,0.1l0,5.4l6.7,0.1c0.3,0,0.6,0.1,0.7,0.3
				c0.1,0.2,0.2,0.4,0.2,0.7c0,0.2-0.1,0.5-0.2,0.6c-0.1,0.2-0.3,0.3-0.5,0.3L96.1,54.4z"/>
		</g>
	</g>
</g>
</svg>
